<mxfile host="Electron" modified="2023-11-20T17:09:44.357Z" agent="Mozilla/5.0 (X11; Linux x86_64) AppleWebKit/537.36 (KHTML, like Gecko) draw.io/22.1.2 Chrome/114.0.5735.289 Electron/25.9.4 Safari/537.36" etag="fm2cNdTEXpLmt_4ugglr" version="22.1.2" type="device">
  <diagram name="Page-1" id="n9SY20FyUc-10EcCOlEz">
    <mxGraphModel dx="989" dy="578" grid="1" gridSize="10" guides="1" tooltips="1" connect="1" arrows="1" fold="1" page="1" pageScale="1" pageWidth="850" pageHeight="1100" math="0" shadow="0">
      <root>
        <mxCell id="0" />
        <mxCell id="1" parent="0" />
        <mxCell id="ejaYfQmNFN1iIVQLN_tp-4" value="" style="edgeStyle=orthogonalEdgeStyle;rounded=0;orthogonalLoop=1;jettySize=auto;html=1;" edge="1" parent="1" source="ejaYfQmNFN1iIVQLN_tp-2" target="ejaYfQmNFN1iIVQLN_tp-3">
          <mxGeometry relative="1" as="geometry" />
        </mxCell>
        <mxCell id="ejaYfQmNFN1iIVQLN_tp-2" value="START" style="rounded=1;whiteSpace=wrap;html=1;" vertex="1" parent="1">
          <mxGeometry x="40" y="40" width="120" height="60" as="geometry" />
        </mxCell>
        <mxCell id="ejaYfQmNFN1iIVQLN_tp-7" value="" style="edgeStyle=orthogonalEdgeStyle;rounded=0;orthogonalLoop=1;jettySize=auto;html=1;" edge="1" parent="1" source="ejaYfQmNFN1iIVQLN_tp-3" target="ejaYfQmNFN1iIVQLN_tp-6">
          <mxGeometry relative="1" as="geometry" />
        </mxCell>
        <mxCell id="ejaYfQmNFN1iIVQLN_tp-12" value="Files dont exist" style="edgeLabel;html=1;align=center;verticalAlign=middle;resizable=0;points=[];" vertex="1" connectable="0" parent="ejaYfQmNFN1iIVQLN_tp-7">
          <mxGeometry x="-0.3003" relative="1" as="geometry">
            <mxPoint x="14" as="offset" />
          </mxGeometry>
        </mxCell>
        <mxCell id="ejaYfQmNFN1iIVQLN_tp-10" value="" style="edgeStyle=orthogonalEdgeStyle;rounded=0;orthogonalLoop=1;jettySize=auto;html=1;" edge="1" parent="1" source="ejaYfQmNFN1iIVQLN_tp-3" target="ejaYfQmNFN1iIVQLN_tp-9">
          <mxGeometry relative="1" as="geometry" />
        </mxCell>
        <mxCell id="ejaYfQmNFN1iIVQLN_tp-13" value="Files do exist" style="edgeLabel;html=1;align=center;verticalAlign=middle;resizable=0;points=[];" vertex="1" connectable="0" parent="ejaYfQmNFN1iIVQLN_tp-10">
          <mxGeometry x="-0.0598" y="-1" relative="1" as="geometry">
            <mxPoint x="1" y="-22" as="offset" />
          </mxGeometry>
        </mxCell>
        <mxCell id="ejaYfQmNFN1iIVQLN_tp-3" value="is this the first run" style="rhombus;whiteSpace=wrap;html=1;" vertex="1" parent="1">
          <mxGeometry x="40" y="120" width="120" height="80" as="geometry" />
        </mxCell>
        <mxCell id="ejaYfQmNFN1iIVQLN_tp-5" value="Check for config files, if config file exists check for token file" style="rounded=0;whiteSpace=wrap;html=1;dashed=1;" vertex="1" parent="1">
          <mxGeometry x="170" y="60" width="120" height="60" as="geometry" />
        </mxCell>
        <mxCell id="ejaYfQmNFN1iIVQLN_tp-6" value="Run configuration&lt;br&gt;&amp;nbsp;files" style="shape=parallelogram;perimeter=parallelogramPerimeter;whiteSpace=wrap;html=1;fixedSize=1;" vertex="1" parent="1">
          <mxGeometry x="280" y="120" width="120" height="80" as="geometry" />
        </mxCell>
        <mxCell id="ejaYfQmNFN1iIVQLN_tp-16" value="" style="edgeStyle=orthogonalEdgeStyle;rounded=0;orthogonalLoop=1;jettySize=auto;html=1;" edge="1" parent="1" source="ejaYfQmNFN1iIVQLN_tp-9" target="ejaYfQmNFN1iIVQLN_tp-15">
          <mxGeometry relative="1" as="geometry" />
        </mxCell>
        <mxCell id="ejaYfQmNFN1iIVQLN_tp-9" value="request for&lt;br&gt;&amp;nbsp;new token&lt;br&gt;(refresh)" style="shape=parallelogram;perimeter=parallelogramPerimeter;whiteSpace=wrap;html=1;fixedSize=1;" vertex="1" parent="1">
          <mxGeometry x="40" y="310" width="120" height="80" as="geometry" />
        </mxCell>
        <mxCell id="ejaYfQmNFN1iIVQLN_tp-14" value="7200s / 60 = 120 minutes&lt;br&gt;to be safe refresh every 100 minutes&lt;br&gt;" style="text;html=1;align=center;verticalAlign=middle;resizable=0;points=[];autosize=1;strokeColor=none;fillColor=none;" vertex="1" parent="1">
          <mxGeometry x="360" y="60" width="220" height="40" as="geometry" />
        </mxCell>
        <mxCell id="ejaYfQmNFN1iIVQLN_tp-19" value="" style="edgeStyle=orthogonalEdgeStyle;rounded=0;orthogonalLoop=1;jettySize=auto;html=1;" edge="1" parent="1" source="ejaYfQmNFN1iIVQLN_tp-15" target="ejaYfQmNFN1iIVQLN_tp-18">
          <mxGeometry relative="1" as="geometry" />
        </mxCell>
        <mxCell id="ejaYfQmNFN1iIVQLN_tp-15" value="send request for blood sugars" style="shape=parallelogram;perimeter=parallelogramPerimeter;whiteSpace=wrap;html=1;fixedSize=1;" vertex="1" parent="1">
          <mxGeometry x="40" y="440" width="120" height="80" as="geometry" />
        </mxCell>
        <mxCell id="ejaYfQmNFN1iIVQLN_tp-17" value="have 100 minutes passed" style="rhombus;whiteSpace=wrap;html=1;" vertex="1" parent="1">
          <mxGeometry x="40" y="680" width="120" height="80" as="geometry" />
        </mxCell>
        <mxCell id="ejaYfQmNFN1iIVQLN_tp-20" value="" style="edgeStyle=orthogonalEdgeStyle;rounded=0;orthogonalLoop=1;jettySize=auto;html=1;" edge="1" parent="1" source="ejaYfQmNFN1iIVQLN_tp-18" target="ejaYfQmNFN1iIVQLN_tp-17">
          <mxGeometry relative="1" as="geometry" />
        </mxCell>
        <mxCell id="ejaYfQmNFN1iIVQLN_tp-18" value="sleep for 30&lt;br&gt;&amp;nbsp;seconds" style="shape=parallelogram;perimeter=parallelogramPerimeter;whiteSpace=wrap;html=1;fixedSize=1;" vertex="1" parent="1">
          <mxGeometry x="40" y="560" width="120" height="80" as="geometry" />
        </mxCell>
        <mxCell id="ejaYfQmNFN1iIVQLN_tp-21" value="" style="endArrow=classic;html=1;rounded=0;exitX=1;exitY=0.5;exitDx=0;exitDy=0;" edge="1" parent="1" source="ejaYfQmNFN1iIVQLN_tp-17">
          <mxGeometry width="50" height="50" relative="1" as="geometry">
            <mxPoint x="270" y="720" as="sourcePoint" />
            <mxPoint x="100" y="280" as="targetPoint" />
            <Array as="points">
              <mxPoint x="240" y="720" />
              <mxPoint x="240" y="280" />
            </Array>
          </mxGeometry>
        </mxCell>
        <mxCell id="ejaYfQmNFN1iIVQLN_tp-22" value="yes" style="edgeLabel;html=1;align=center;verticalAlign=middle;resizable=0;points=[];" vertex="1" connectable="0" parent="ejaYfQmNFN1iIVQLN_tp-21">
          <mxGeometry x="-0.1774" y="-1" relative="1" as="geometry">
            <mxPoint as="offset" />
          </mxGeometry>
        </mxCell>
        <mxCell id="ejaYfQmNFN1iIVQLN_tp-23" value="" style="endArrow=classic;html=1;rounded=0;exitX=0;exitY=0.5;exitDx=0;exitDy=0;" edge="1" parent="1" source="ejaYfQmNFN1iIVQLN_tp-17">
          <mxGeometry width="50" height="50" relative="1" as="geometry">
            <mxPoint x="110" y="810" as="sourcePoint" />
            <mxPoint x="100" y="410" as="targetPoint" />
            <Array as="points">
              <mxPoint x="10" y="720" />
              <mxPoint x="10" y="410" />
            </Array>
          </mxGeometry>
        </mxCell>
      </root>
    </mxGraphModel>
  </diagram>
</mxfile>
